<?xml version="1.0" standalone="no"?>
<!DOCTYPE svg PUBLIC "-//W3C//DTD SVG 1.1//EN" "http://www.w3.org/Graphics/SVG/1.1/DTD/svg11.dtd" >
<svg xmlns="http://www.w3.org/2000/svg" xmlns:xlink="http://www.w3.org/1999/xlink" version="1.1">
<metadata>
Created by FontForge 20170812 at Thu Dec 17 00:49:53 2020
 By www-data
DIN 2014 is a contemporary version of a well-known DIN typeface. The Regular performs well in long text settings, while Light and Bold faces are extremely legible at large sizes. Type family spans 18 faces: 6 Upright with the matching Italics of normal width and 6 Narrow ones. The typeface was designed by Vasily Biryukov and released by Paratype in 2015.
</metadata>
<defs>
<font id="DIN2014-Italic" horiz-adv-x="500" >
  <font-face 
    font-family="DIN 2014"
    font-weight="400"
    font-style="italic"
    font-stretch="normal"
    units-per-em="1000"
    panose-1="2 11 5 4 2 2 2 9 2 4"
    ascent="750"
    descent="-250"
    x-height="500"
    cap-height="690"
    bbox="-37 -198 1066.53 879"
    underline-thickness="50"
    underline-position="-100"
    slope="-11"
    stemh="72"
    stemv="80"
    unicode-range="U+0020-E006"
  />
<missing-glyph horiz-adv-x="250" 
 />
    <glyph glyph-name="fi" unicode="fi" horiz-adv-x="465" 
d="M118 500h64l7 36c20 104 64 154 182 154h23l-15 -76h-20c-67 0 -81 -29 -94 -98l-3 -16h235l-97 -500h-80l83 428h-155l-83 -428h-80l83 428h-64z" />
    <glyph glyph-name="fl" unicode="fl" horiz-adv-x="510" 
d="M350 154l89 460h-80c-67 0 -81 -29 -94 -98l-3 -16h95l-14 -72h-95l-83 -428h-80l83 428h-64l14 72h64l7 36c20 104 64 154 182 154h163l-100 -516c-11 -58 -17 -100 65 -100l-14 -74c-104 0 -155 50 -135 154z" />
    <glyph glyph-name=".notdef" horiz-adv-x="250" 
 />
    <glyph glyph-name="space" unicode=" " horiz-adv-x="250" 
 />
    <glyph glyph-name="exclam" unicode="!" horiz-adv-x="216" 
d="M285 690l-97 -501h-86l97 501h86zM156 0l19 96h-96l-19 -96h96z" />
    <glyph glyph-name="quotedbl" unicode="&#x22;" horiz-adv-x="322" 
d="M260 690l-33 -169h-86l33 169h86zM416 690l-33 -169h-86l33 169h86z" />
    <glyph glyph-name="numbersign" unicode="#" horiz-adv-x="605" 
d="M106 494h130l37 196h87l-37 -196h150l37 196h88l-37 -196h108v-78h-123l-24 -132h110v-78h-125l-38 -206h-87l38 206h-150l-38 -206h-88l38 206h-113v78h128l24 132h-115v78zM309 416l-25 -132h150l25 132h-150z" />
    <glyph glyph-name="dollar" unicode="$" 
d="M365 381c105 -29 165 -79 165 -177c0 -91 -56 -201 -240 -210l-21 -110h-74l21 110c-85 11 -150 53 -182 114l75 46c30 -50 68 -75 122 -82l47 242c-103 28 -157 82 -157 175c0 91 70 202 231 207l23 116h74l-23 -116c85 -13 131 -57 163 -114l-72 -45
c-22 39 -50 71 -106 79zM350 300l-45 -228c111 7 137 72 137 126c0 47 -20 84 -92 102zM294 397l43 221c-74 1 -128 -49 -128 -120c0 -59 29 -86 85 -101z" />
    <glyph glyph-name="percent" unicode="%" horiz-adv-x="725" 
d="M643 690h87l-519 -690h-88zM418 543l-8 -43c-20 -105 -70 -157 -171 -157c-96 0 -135 60 -117 157l8 43c18 97 76 155 169 155c97 0 138 -57 119 -155zM246 402c60 0 88 34 101 99l8 40c14 68 -8 98 -64 98c-54 0 -84 -32 -97 -98l-8 -40c-13 -67 2 -99 60 -99zM742 192
l-8 -43c-20 -105 -70 -157 -171 -157c-96 0 -135 60 -117 157l8 43c18 97 76 155 169 155c97 0 138 -57 119 -155zM570 51c60 0 88 34 101 99l8 40c14 68 -8 98 -64 98c-54 0 -84 -32 -97 -98l-8 -40c-13 -67 2 -99 60 -99z" />
    <glyph glyph-name="ampersand" unicode="&#x26;" horiz-adv-x="653" 
d="M77 155c0 109 64 172 164 235c-26 41 -44 82 -44 127c0 112 90 181 203 181c102 0 143 -61 143 -120c0 -94 -94 -143 -188 -200l141 -192c30 35 51 88 61 136h78c-14 -68 -46 -141 -95 -199l90 -123h-110l-45 61c-57 -43 -129 -69 -214 -69c-119 0 -184 78 -184 163z
M277 70c62 0 113 21 155 52l-150 210c-84 -53 -121 -98 -121 -165c0 -63 40 -97 116 -97zM285 528c0 -35 14 -70 30 -94c82 47 143 78 143 133c0 27 -19 54 -70 54c-62 0 -103 -38 -103 -93z" />
    <glyph glyph-name="quotesingle" unicode="'" horiz-adv-x="166" 
d="M260 690l-33 -169h-86l33 169h86z" />
    <glyph glyph-name="parenleft" unicode="(" horiz-adv-x="317" 
d="M271 -58l-56 -58c-121 103 -134 167 -110 291l69 359c28 144 62 194 221 278l40 -69c-123 -68 -159 -88 -185 -228l-63 -345c-24 -129 -6 -148 84 -228z" />
    <glyph glyph-name="parenright" unicode=")" horiz-adv-x="317" 
d="M182 754l56 58c121 -103 134 -167 110 -291l-69 -359c-28 -144 -62 -194 -221 -278l-40 69c123 68 159 88 185 228l63 345c24 129 6 148 -84 228z" />
    <glyph glyph-name="asterisk" unicode="*" horiz-adv-x="416" 
d="M290 690l-3 -121l103 63l34 -59l-106 -58l106 -57l-34 -59l-103 62l3 -120h-68l3 120l-103 -62l-34 59l105 57l-105 58l34 59l103 -63l-3 121h68z" />
    <glyph glyph-name="plus" unicode="+" 
d="M111 318v72h158v159h72v-159h159v-72h-159v-158h-72v158h-158z" />
    <glyph glyph-name="comma" unicode="," horiz-adv-x="216" 
d="M178 116l-34 -175l-112 -83l50 258h96z" />
    <glyph glyph-name="hyphen" unicode="-" horiz-adv-x="319" 
d="M78 253v72h259v-72h-259z" />
    <glyph glyph-name="period" unicode="." horiz-adv-x="236" 
d="M187 116l-23 -116h-116l23 116h116z" />
    <glyph glyph-name="slash" unicode="/" horiz-adv-x="485" 
d="M124 -116h-77l336 928h77z" />
    <glyph glyph-name="zero" unicode="0" 
d="M544 499l-60 -308c-27 -137 -113 -199 -236 -199c-104 0 -183 75 -159 200l59 306c27 141 120 200 237 200c104 0 183 -82 159 -199zM459 499c15 80 -24 121 -89 121c-63 0 -121 -37 -137 -121l-59 -308c-15 -76 20 -121 89 -121c62 0 120 37 136 121z" />
    <glyph glyph-name="one" unicode="1" 
d="M442 690l-134 -690h-85l115 591l-113 -71l18 94l114 76h85z" />
    <glyph glyph-name="two" unicode="2" 
d="M458 78l-15 -78h-405l14 72l299 287c67 64 110 113 110 174c0 63 -39 88 -93 88c-67 0 -118 -37 -134 -108h-85c22 114 114 185 234 185c101 0 165 -69 165 -155c0 -103 -84 -179 -145 -239l-232 -226h287z" />
    <glyph glyph-name="three" unicode="3" 
d="M247 317l15 78h43c107 0 156 62 156 133c0 59 -30 93 -94 93c-73 0 -120 -40 -134 -99h-82c21 109 119 176 231 176c105 0 166 -68 166 -153c0 -88 -45 -155 -137 -188c51 -22 84 -74 84 -139c0 -127 -91 -226 -236 -226c-131 0 -193 75 -185 181h80
c-2 -67 31 -103 110 -103c87 0 144 60 144 141c0 67 -39 106 -118 106h-43z" />
    <glyph glyph-name="four" unicode="4" 
d="M394 690h88l-327 -500h201l40 203h86l-40 -203h63l-15 -78h-63l-22 -112h-86l22 112h-299l12 63z" />
    <glyph glyph-name="five" unicode="5" 
d="M328 387c-56 0 -89 -29 -114 -56h-79l70 359h350l-17 -86h-267l-35 -181c27 25 70 45 119 45c95 0 146 -64 146 -163c0 -201 -97 -313 -242 -313c-121 0 -178 76 -173 170h80c5 -58 30 -92 96 -92c90 0 151 75 151 225c0 61 -29 92 -85 92z" />
    <glyph glyph-name="six" unicode="6" 
d="M469 690l-196 -305c20 11 51 15 75 15c90 0 143 -64 143 -154c0 -149 -97 -254 -239 -254c-111 0 -169 67 -169 162c0 73 41 142 78 201l213 335h95zM170 164c0 -61 32 -94 93 -94c78 0 141 65 141 160c0 66 -32 96 -85 96c-87 0 -149 -74 -149 -162z" />
    <glyph glyph-name="seven" unicode="7" 
d="M229 491h-78l39 199h388l-15 -78l-338 -612h-93l339 612h-218z" />
    <glyph glyph-name="eight" unicode="8" 
d="M76 161c0 96 68 174 141 197c-39 23 -69 67 -69 125c0 125 107 215 237 215c93 0 166 -57 166 -154c0 -98 -61 -166 -129 -186c44 -23 77 -67 77 -136c0 -148 -119 -230 -242 -230c-109 0 -181 72 -181 169zM163 174c0 -58 26 -104 101 -104c86 0 148 63 148 144
c0 77 -46 103 -100 103c-77 0 -149 -51 -149 -143zM234 490c0 -54 23 -96 93 -96c79 0 136 61 136 137c0 59 -29 89 -92 89c-85 0 -137 -60 -137 -130z" />
    <glyph glyph-name="nine" unicode="9" 
d="M165 0l195 304c-20 -11 -51 -14 -70 -14c-94 0 -147 69 -147 161c0 143 105 247 244 247c102 0 164 -63 164 -160c0 -78 -40 -143 -85 -215l-203 -323h-98zM463 524c0 72 -34 96 -91 96c-79 0 -141 -61 -141 -155c0 -64 25 -101 91 -101c86 0 141 80 141 160z" />
    <glyph glyph-name="colon" unicode=":" horiz-adv-x="216" 
d="M175 96l-19 -96h-96l19 96h96zM253 500l-18 -96h-96l18 96h96z" />
    <glyph glyph-name="semicolon" unicode=";" horiz-adv-x="216" 
d="M175 96l-34 -175l-112 -83l50 258h96zM254 500l-19 -96h-96l19 96h96z" />
    <glyph glyph-name="less" unicode="&#x3c;" 
d="M448 490l-242 -134l242 -134v-90l-325 183v82l325 183v-90z" />
    <glyph glyph-name="equal" unicode="=" 
d="M111 400v72h389v-72h-389zM111 236v72h389v-72h-389z" />
    <glyph glyph-name="greater" unicode="&#x3e;" 
d="M400 356l-242 134v90l325 -183v-82l-325 -183v90z" />
    <glyph glyph-name="question" unicode="?" horiz-adv-x="486" 
d="M321 189h-80l13 64c8 43 21 67 51 90l50 38c76 58 107 91 107 155c0 60 -36 85 -93 85c-73 0 -122 -33 -137 -108h-82c20 118 111 185 232 185c101 0 167 -59 167 -155c0 -104 -66 -154 -144 -218l-34 -28c-25 -21 -36 -35 -43 -71zM292 0l19 96h-96l-19 -96h96z" />
    <glyph glyph-name="at" unicode="@" horiz-adv-x="898" 
d="M714 484l-50 -259c-15 -80 17 -95 53 -95c118 0 124 167 124 211c0 199 -124 272 -283 272c-248 0 -392 -195 -392 -395c0 -191 117 -278 268 -278c91 0 157 16 236 52l25 -62c-45 -24 -139 -62 -268 -62c-183 0 -342 125 -342 335c0 307 237 482 484 482
c203 0 352 -124 352 -334c0 -164 -61 -293 -220 -293c-51 0 -95 22 -108 69c-25 -45 -72 -69 -136 -69c-113 0 -158 81 -137 190l10 52c23 121 92 189 204 189c46 0 76 -13 95 -35l5 30h80zM472 130c74 0 101 41 117 122l11 55c16 82 -11 110 -73 110
c-73 0 -102 -40 -117 -114l-10 -51c-15 -74 -6 -122 72 -122z" />
    <glyph glyph-name="A" unicode="A" horiz-adv-x="580" 
d="M104 0h-94l374 690h80l106 -690h-86l-23 158h-273zM402 563l-172 -327h219z" />
    <glyph glyph-name="B" unicode="&#xe000;" horiz-adv-x="596" 
d="M219 690h211c146 0 208 -59 208 -150c0 -104 -68 -167 -148 -180c73 -17 109 -72 109 -137c0 -114 -63 -223 -281 -223h-233zM233 319l-47 -241h147c129 0 179 52 179 140c0 65 -35 101 -148 101h-131zM290 613l-42 -216h140c110 0 163 54 163 133c0 54 -23 83 -136 83
h-125z" />
    <glyph glyph-name="B" unicode="B" horiz-adv-x="596" 
d="M219 690h211c146 0 208 -59 208 -150c0 -104 -68 -167 -148 -180c73 -17 109 -72 109 -137c0 -114 -63 -223 -281 -223h-233zM233 319l-47 -241h147c129 0 179 52 179 140c0 65 -35 101 -148 101h-131zM290 613l-42 -216h140c110 0 163 54 163 133c0 54 -23 83 -136 83
h-125z" />
    <glyph glyph-name="C" unicode="C" horiz-adv-x="578" 
d="M640 475h-84c0 111 -40 145 -136 145c-114 0 -175 -59 -210 -237l-15 -76c-33 -168 7 -237 118 -237c102 0 157 47 192 145h83c-43 -147 -135 -223 -282 -223c-154 0 -241 92 -197 315l15 76c44 223 152 315 311 315c136 0 205 -69 205 -223z" />
    <glyph glyph-name="D" unicode="D" horiz-adv-x="605" 
d="M305 0h-220l134 690h220c153 0 233 -86 190 -309l-14 -72c-43 -223 -157 -309 -310 -309zM320 78c106 0 176 60 209 231l14 72c33 171 -13 231 -119 231h-134l-104 -534h134z" />
    <glyph glyph-name="E" unicode="&#xe001;" horiz-adv-x="541" 
d="M219 690h416l-15 -78h-330l-42 -216h300l-15 -78h-300l-47 -240h330l-15 -78h-416z" />
    <glyph glyph-name="E" unicode="E" horiz-adv-x="541" 
d="M219 690h416l-15 -78h-330l-42 -216h300l-15 -78h-300l-47 -240h330l-15 -78h-416z" />
    <glyph glyph-name="F" unicode="F" horiz-adv-x="531" 
d="M219 690h416l-15 -78h-330l-45 -232h300l-15 -78h-300l-59 -302h-86z" />
    <glyph glyph-name="G" unicode="G" horiz-adv-x="604" 
d="M370 347h251l-8 -40c-46 -229 -143 -315 -310 -315c-154 0 -237 97 -194 315l15 76c45 230 158 315 311 315c134 0 205 -67 205 -223h-84c1 118 -48 145 -136 145c-112 0 -174 -57 -210 -237l-15 -76c-35 -176 13 -237 118 -237c114 0 174 57 206 199h-164z" />
    <glyph glyph-name="H" unicode="H" horiz-adv-x="638" 
d="M305 690l-57 -294h296l57 294h86l-134 -690h-86l62 318h-296l-62 -318h-86l134 690h86z" />
    <glyph glyph-name="I" unicode="I" horiz-adv-x="276" 
d="M315 690l-134 -690h-86l134 690h86z" />
    <glyph glyph-name="J" unicode="J" horiz-adv-x="505" 
d="M23 80l77 40c17 -29 50 -50 106 -50c100 0 152 56 183 214l79 406h86l-81 -415c-40 -205 -122 -283 -272 -283c-82 0 -149 35 -178 88z" />
    <glyph glyph-name="K" unicode="K" horiz-adv-x="638" 
d="M633 0h-94l-164 346l-171 -172l-33 -174h-86l134 690h86l-72 -371l369 371h113l-275 -280z" />
    <glyph glyph-name="L" unicode="L" horiz-adv-x="501" 
d="M305 690l-119 -612h330l-15 -78h-416l134 690h86z" />
    <glyph glyph-name="M" unicode="M" horiz-adv-x="752" 
d="M303 690l117 -432l284 432h97l-134 -690h-86l98 506l-238 -362h-75l-96 362l-99 -506h-86l134 690h84z" />
    <glyph glyph-name="N" unicode="N" horiz-adv-x="638" 
d="M601 690h86l-134 -690h-84l-194 530l-104 -530h-86l134 690h82l196 -535z" />
    <glyph glyph-name="O" unicode="O" horiz-adv-x="600" 
d="M624 383l-15 -76c-48 -243 -155 -315 -304 -315c-161 0 -238 104 -196 315l15 76c44 223 152 315 307 315c143 0 238 -88 193 -315zM210 383l-15 -76c-34 -171 9 -237 118 -237c112 0 174 56 210 237l15 76c33 168 -2 237 -118 237c-119 0 -176 -66 -210 -237z" />
    <glyph glyph-name="P" unicode="P" horiz-adv-x="588" 
d="M356 263h-134l-51 -263h-86l134 690h220c133 0 215 -72 215 -185c0 -148 -100 -242 -298 -242zM237 341h134c142 0 195 64 195 154c0 77 -35 117 -144 117h-132z" />
    <glyph glyph-name="Q" unicode="Q" horiz-adv-x="600" 
d="M609 307c-16 -82 -38 -147 -78 -207l70 -80l-58 -49l-65 73c-51 -41 -113 -52 -180 -52c-138 1 -234 88 -189 315l15 76c44 223 152 315 310 315c149 0 233 -99 190 -315zM210 383l-15 -76c-34 -171 8 -237 118 -237c43 0 82 8 115 33l-85 96l60 49l73 -85
c21 36 36 89 47 144l15 76c34 171 -4 237 -118 237c-118 0 -177 -66 -210 -237z" />
    <glyph glyph-name="R" unicode="R" horiz-adv-x="604" 
d="M574 0h-90l-87 291h-169l-57 -291h-86l134 690h220c138 0 217 -70 217 -181c0 -104 -53 -171 -177 -203zM243 369h144c131 0 182 50 182 136c0 68 -38 107 -145 107h-134z" />
    <glyph glyph-name="S" unicode="&#xe002;" horiz-adv-x="571" 
d="M621 583l-72 -45c-31 57 -72 82 -152 82c-90 0 -155 -39 -155 -121c0 -83 54 -97 141 -115c103 -22 180 -63 180 -180c0 -115 -77 -212 -271 -212c-106 0 -185 44 -224 114l75 47c33 -54 74 -83 161 -83c137 0 171 63 171 125c0 65 -36 98 -131 114
c-122 20 -189 77 -189 177c0 109 74 212 251 212c112 0 170 -38 215 -115z" />
    <glyph glyph-name="S" unicode="S" horiz-adv-x="571" 
d="M621 583l-72 -45c-31 57 -72 82 -152 82c-90 0 -155 -39 -155 -121c0 -83 54 -97 141 -115c103 -22 180 -63 180 -180c0 -115 -77 -212 -271 -212c-106 0 -185 44 -224 114l75 47c33 -54 74 -83 161 -83c137 0 171 63 171 125c0 65 -36 98 -131 114
c-122 20 -189 77 -189 177c0 109 74 212 251 212c112 0 170 -38 215 -115z" />
    <glyph glyph-name="T" unicode="T" horiz-adv-x="516" 
d="M139 690h506l-15 -78h-210l-119 -612h-86l119 612h-210z" />
    <glyph glyph-name="U" unicode="U" horiz-adv-x="670" 
d="M633 690h87l-80 -409c-41 -211 -154 -289 -300 -289c-154 0 -237 103 -201 288l80 410h86l-80 -410c-29 -146 15 -210 118 -210c126 0 184 76 210 210z" />
    <glyph glyph-name="V" unicode="V" horiz-adv-x="601" 
d="M144 690h86l92 -553l305 553h98l-384 -690h-81z" />
    <glyph glyph-name="W" unicode="W" horiz-adv-x="842" 
d="M525 540l-257 -540h-90l-34 690h82l26 -542l256 542h84l52 -542l232 542h90l-297 -690h-92z" />
    <glyph glyph-name="X" unicode="X" horiz-adv-x="552" 
d="M125 0h-105l276 364l-122 326h89l97 -260l180 260h105l-251 -343l138 -347h-90l-110 278z" />
    <glyph glyph-name="Y" unicode="Y" horiz-adv-x="556" 
d="M154 690h88l106 -300l219 300h103l-292 -394l-57 -296h-86l57 296z" />
    <glyph glyph-name="Z" unicode="Z" horiz-adv-x="519" 
d="M164 690h449l-13 -67l-442 -545h346l-15 -78h-459l13 67l441 545h-335z" />
    <glyph glyph-name="bracketleft" unicode="[" horiz-adv-x="335" 
d="M50 -102l174 894h205l-14 -72h-125l-146 -750h125l-14 -72h-205z" />
    <glyph glyph-name="backslash" unicode="\" horiz-adv-x="485" 
d="M47 812h78l336 -928h-78z" />
    <glyph glyph-name="bracketright" unicode="]" horiz-adv-x="335" 
d="M214 792h205l-174 -894h-205l14 72h125l146 750h-125z" />
    <glyph glyph-name="asciicircum" unicode="^" 
d="M261 690h88l176 -253h-90l-129 190l-129 -190h-90z" />
    <glyph glyph-name="underscore" unicode="_" horiz-adv-x="526" 
d="M0 -93h526v-62h-526v62z" />
    <glyph glyph-name="grave" unicode="`" horiz-adv-x="369" 
d="M390 725l39 -158h-75l-60 158h96z" />
    <glyph glyph-name="a" unicode="a" horiz-adv-x="491" 
d="M65 124c0 115 83 165 210 165h127l11 58c14 71 -16 87 -94 87c-60 0 -90 -8 -127 -54l-54 45c46 58 102 83 193 83c125 0 184 -49 162 -161l-67 -347h-80l10 45c-33 -45 -74 -53 -132 -53c-94 0 -159 46 -159 132zM383 192l6 29h-119c-97 0 -124 -35 -124 -92
c0 -45 35 -63 86 -63c74 0 130 14 151 126z" />
    <glyph glyph-name="b" unicode="&#xe003;" horiz-adv-x="521" 
d="M279 690l-47 -240c35 37 82 58 148 58c124 0 182 -91 156 -224l-13 -66c-28 -143 -108 -226 -240 -226c-66 0 -108 22 -128 57l-10 -49h-80l134 690h80zM285 64c89 0 138 53 158 154l13 66c21 105 -16 152 -98 152c-88 0 -140 -55 -157 -145l-14 -73
c-17 -86 6 -154 98 -154z" />
    <glyph glyph-name="b" unicode="b" horiz-adv-x="521" 
d="M279 690l-47 -240c35 37 82 58 148 58c124 0 182 -91 156 -224l-13 -66c-28 -143 -108 -226 -240 -226c-66 0 -108 22 -128 57l-10 -49h-80l134 690h80zM285 64c89 0 138 53 158 154l13 66c21 105 -16 152 -98 152c-88 0 -140 -55 -157 -145l-14 -73
c-17 -86 6 -154 98 -154z" />
    <glyph glyph-name="c" unicode="c" horiz-adv-x="444" 
d="M388 122l58 -47c-43 -57 -105 -83 -182 -83c-136 0 -207 92 -181 226l13 66c29 149 114 224 256 224c78 0 132 -29 158 -80l-66 -40c-23 38 -57 48 -101 48c-98 0 -146 -46 -167 -152l-13 -66c-17 -86 10 -154 106 -154c52 0 87 18 119 58z" />
    <glyph glyph-name="d" unicode="d" horiz-adv-x="521" 
d="M463 450l47 240h80l-134 -690h-80l8 44c-30 -34 -73 -52 -132 -52c-130 0 -194 106 -170 226l13 66c30 151 120 224 241 224c65 0 110 -24 127 -58zM263 64c90 0 135 50 154 147l14 73c20 104 -16 152 -98 152c-85 0 -137 -46 -158 -152l-13 -66
c-18 -92 13 -154 101 -154z" />
    <glyph glyph-name="e" unicode="e" horiz-adv-x="488" 
d="M388 122l58 -47c-48 -61 -107 -83 -188 -83c-120 0 -203 87 -176 226l13 66c28 142 110 224 241 224c132 0 180 -92 155 -224l-10 -52h-316l-3 -14c-18 -86 15 -154 101 -154c62 0 96 21 125 58zM327 436c-92 0 -128 -50 -149 -134h235c15 86 -2 134 -86 134z" />
    <glyph glyph-name="f" unicode="f" horiz-adv-x="285" 
d="M118 500h64l7 36c18 95 69 154 182 154h23l-15 -76h-20c-65 0 -79 -22 -93 -93l-4 -21h95l-14 -72h-95l-83 -428h-80l83 428h-64z" />
    <glyph glyph-name="g" unicode="g" horiz-adv-x="521" 
d="M463 450l10 50h80l-95 -490c-29 -150 -109 -206 -243 -206c-90 0 -140 24 -170 84l67 41c20 -38 47 -53 112 -53c100 0 136 48 154 134l7 34c-34 -35 -75 -52 -135 -52c-131 0 -191 111 -168 226l13 66c28 143 113 224 244 224c66 0 105 -25 124 -58zM263 64
c101 0 137 63 155 154l13 66c20 103 -16 152 -98 152c-93 0 -139 -57 -158 -152l-13 -66c-17 -85 8 -154 101 -154z" />
    <glyph glyph-name="h" unicode="h" horiz-adv-x="526" 
d="M65 0l134 690h80l-46 -239c31 36 72 57 145 57c113 0 168 -71 144 -196l-61 -312h-80l60 311c19 98 -17 123 -86 123c-79 0 -132 -36 -149 -122l-61 -312h-80z" />
    <glyph glyph-name="i" unicode="i" horiz-adv-x="240" 
d="M80 0l97 500h80l-97 -500h-80zM192 600l17 90h90l-17 -90h-90z" />
    <glyph glyph-name="j" unicode="j" horiz-adv-x="235" 
d="M262 500l-104 -536c-20 -104 -69 -154 -195 -154l14 74c82 0 94 46 105 100l100 516h80zM197 600l17 90h90l-17 -90h-90z" />
    <glyph glyph-name="k" unicode="k" horiz-adv-x="487" 
d="M433 500h115l-251 -219l185 -281h-98l-149 228l-55 -48l-35 -180h-80l134 690h80l-76 -394z" />
    <glyph glyph-name="l" unicode="l" horiz-adv-x="269" 
d="M96 154l103 536h80l-100 -516c-12 -63 -16 -100 66 -100l-15 -74c-108 0 -154 49 -134 154z" />
    <glyph glyph-name="m" unicode="m" horiz-adv-x="802" 
d="M65 0l97 500h80l-9 -49c28 34 71 57 135 57c72 0 112 -35 128 -82c45 55 104 82 168 82c107 0 158 -76 134 -196l-61 -312h-80l60 311c18 91 -11 123 -73 123c-71 0 -126 -41 -142 -122l-61 -312h-80l60 311c18 91 -11 123 -72 123c-73 0 -128 -44 -143 -122l-61 -312
h-80z" />
    <glyph glyph-name="n" unicode="n" horiz-adv-x="526" 
d="M65 0l97 500h80l-9 -49c32 37 71 56 145 57c97 1 171 -56 144 -196l-61 -312h-80l60 311c21 107 -26 123 -90 123c-75 0 -129 -39 -145 -122l-61 -312h-80z" />
    <glyph glyph-name="o" unicode="o" horiz-adv-x="496" 
d="M512 284l-13 -66c-26 -132 -97 -226 -248 -226c-117 0 -194 92 -168 226l13 66c30 154 120 224 251 224c133 0 192 -87 165 -224zM261 64c95 0 140 61 158 154l13 66c21 109 -17 152 -99 152s-136 -43 -157 -152l-13 -66c-18 -92 11 -154 98 -154z" />
    <glyph glyph-name="p" unicode="p" horiz-adv-x="521" 
d="M232 450c35 37 82 58 148 58c124 0 182 -91 156 -224l-13 -66c-26 -130 -95 -226 -244 -226c-58 0 -105 21 -124 58l-47 -240h-80l134 690h80zM285 64c101 0 141 69 158 154l13 66c19 95 -7 152 -98 152c-88 0 -140 -55 -157 -145l-14 -73c-17 -86 6 -154 98 -154z" />
    <glyph glyph-name="q" unicode="q" horiz-adv-x="521" 
d="M463 450l10 50h80l-134 -690h-80l45 234c-33 -35 -73 -52 -138 -52c-121 0 -188 107 -164 226l13 66c30 151 120 224 244 224c66 0 106 -25 124 -58zM262 64c102 0 139 64 156 152l13 68c20 103 -16 152 -98 152s-137 -44 -158 -152l-13 -66c-18 -90 13 -154 100 -154z
" />
    <glyph glyph-name="r" unicode="r" horiz-adv-x="394" 
d="M486 438l-67 -42c-18 27 -38 38 -76 38c-68 0 -122 -46 -137 -121l-61 -313h-80l97 500h80l-9 -49c27 35 68 57 127 57c71 0 101 -28 126 -70z" />
    <glyph glyph-name="s" unicode="&#xe004;" horiz-adv-x="466" 
d="M489 425l-68 -42c-20 37 -45 51 -114 51c-67 0 -112 -21 -112 -76c0 -53 32 -64 102 -70c82 -7 155 -37 155 -126c0 -104 -71 -170 -220 -170c-102 0 -149 31 -177 83l67 42c20 -36 53 -51 125 -51c75 0 123 21 123 82c0 49 -32 63 -105 68c-83 6 -152 41 -152 132
s74 160 210 160c81 0 137 -21 166 -83z" />
    <glyph glyph-name="s" unicode="s" horiz-adv-x="466" 
d="M489 425l-68 -42c-20 37 -45 51 -114 51c-67 0 -112 -21 -112 -76c0 -53 32 -64 102 -70c82 -7 155 -37 155 -126c0 -104 -71 -170 -220 -170c-102 0 -149 31 -177 83l67 42c20 -36 53 -51 125 -51c75 0 123 21 123 82c0 49 -32 63 -105 68c-83 6 -152 41 -152 132
s74 160 210 160c81 0 137 -21 166 -83z" />
    <glyph glyph-name="t" unicode="t" horiz-adv-x="315" 
d="M104 428l14 72h64l22 110h80l-22 -110h115l-14 -72h-115l-49 -254c-14 -75 -11 -98 56 -98h40l-15 -76h-43c-105 0 -141 58 -122 154l53 274h-64z" />
    <glyph glyph-name="u" unicode="u" horiz-adv-x="526" 
d="M558 500l-97 -500h-80l9 49c-33 -36 -68 -57 -140 -57c-98 0 -176 56 -149 196l61 312h79l-60 -311c-21 -107 31 -123 90 -123c85 0 132 48 146 122l61 312h80z" />
    <glyph glyph-name="v" unicode="v" horiz-adv-x="504" 
d="M501 500h90l-295 -500h-84l-105 500h80l81 -399z" />
    <glyph glyph-name="w" unicode="&#xe005;" horiz-adv-x="716" 
d="M430 375l-202 -375h-73l-48 500h81l33 -351l192 351h75l59 -354l168 354h88l-239 -500h-73z" />
    <glyph glyph-name="w" unicode="w" horiz-adv-x="716" 
d="M430 375l-202 -375h-73l-48 500h81l33 -351l192 351h75l59 -354l168 354h88l-239 -500h-73z" />
    <glyph glyph-name="x" unicode="x" horiz-adv-x="478" 
d="M468 0h-87l-100 190l-170 -190h-101l233 264l-116 236h88l85 -174l144 174h101l-209 -245z" />
    <glyph glyph-name="y" unicode="&#xe006;" horiz-adv-x="466" 
d="M195 -12l4 8l-97 504h83l74 -390l205 390h89l-275 -516c-64 -120 -103 -174 -243 -174l15 78c66 0 101 12 145 100z" />
    <glyph glyph-name="y" unicode="y" horiz-adv-x="466" 
d="M195 -12l4 8l-97 504h83l74 -390l205 390h89l-275 -516c-64 -120 -103 -174 -243 -174l15 78c66 0 101 12 145 100z" />
    <glyph glyph-name="z" unicode="z" horiz-adv-x="450" 
d="M53 62l336 366h-265l14 72h369l-12 -62l-334 -366h263l-14 -72h-369z" />
    <glyph glyph-name="braceleft" unicode="{" horiz-adv-x="317" 
d="M302 629l-42 -213c-8 -43 -25 -60 -58 -70c29 -10 37 -41 31 -70l-41 -213c-15 -78 15 -86 67 -86h23l-14 -72h-23c-84 0 -158 33 -134 155l39 198c7 38 -5 52 -40 52h-19l14 72h19c35 0 53 14 60 52l38 198c25 130 93 155 195 155h23l-14 -72h-23c-52 0 -86 -8 -101 -86
z" />
    <glyph glyph-name="bar" unicode="|" horiz-adv-x="255" 
d="M215 812v-928h-74v928h74z" />
    <glyph glyph-name="braceright" unicode="}" horiz-adv-x="317" 
d="M151 63l42 213c8 43 25 60 58 70c-29 10 -37 41 -31 70l41 213c15 78 -15 86 -67 86h-23l14 72h23c84 0 159 -29 134 -155l-39 -198c-7 -38 5 -52 40 -52h19l-14 -72h-19c-35 0 -53 -14 -60 -52l-38 -198c-25 -130 -93 -155 -195 -155h-23l14 72h23c52 0 86 8 101 86z
" />
    <glyph glyph-name="asciitilde" unicode="~" 
d="M389 277c-83 0 -106 46 -167 46c-40 0 -76 -19 -100 -48l-56 46c37 45 93 74 156 74c83 0 106 -46 167 -46c40 0 76 19 100 48l56 -46c-37 -45 -93 -74 -156 -74z" />
    <glyph glyph-name="uni00A0" unicode="&#xa0;" horiz-adv-x="250" 
 />
    <glyph glyph-name="exclamdown" unicode="&#xa1;" horiz-adv-x="216" 
d="M47 -190l97 501h86l-97 -501h-86zM157 404l19 96h96l-19 -96h-96z" />
    <glyph glyph-name="cent" unicode="&#xa2;" 
d="M388 122l58 -47c-38 -50 -84 -74 -155 -81l-22 -110h-74l22 111c-100 18 -159 100 -135 223l13 66c25 128 98 214 221 221l23 117h74l-23 -117c58 -7 98 -35 120 -77l-66 -40c-22 37 -57 48 -101 48c-88 0 -146 -38 -168 -152l-13 -66c-17 -86 10 -154 106 -154
c47 0 89 15 120 58z" />
    <glyph glyph-name="sterling" unicode="&#xa3;" 
d="M22 0l15 78h71l47 240h-71l15 78h71l2 10c47 233 140 292 263 292c76 0 123 -25 157 -88l-74 -38c-19 37 -47 48 -90 48c-89 0 -134 -35 -170 -214l-2 -10h156l-15 -78h-156l-47 -240h280l-15 -78h-437z" />
    <glyph glyph-name="currency" unicode="&#xa4;" 
d="M106 366c0 40 11 78 32 110l-68 68l57 57l67 -68c32 21 70 34 111 34s79 -13 110 -34l69 69l57 -57l-69 -69c21 -31 34 -69 34 -110s-13 -79 -34 -111l69 -68l-57 -57l-69 68c-31 -20 -70 -32 -110 -32c-41 0 -79 12 -110 33l-68 -68l-57 57l68 68c-21 31 -32 69 -32 110
zM192 366c0 -64 49 -117 113 -117c65 0 115 53 115 117s-50 118 -115 118c-64 0 -113 -54 -113 -118z" />
    <glyph glyph-name="yen" unicode="&#xa5;" 
d="M100 224h140l14 72h-140l15 78h105l-75 316h86l68 -311l197 311h99l-205 -316h91l-15 -78h-140l-14 -72h140l-15 -78h-140l-28 -146h-86l28 146h-140z" />
    <glyph glyph-name="brokenbar" unicode="&#xa6;" horiz-adv-x="246" 
d="M222 243v-243h-86v243h86zM222 690v-243h-86v243h86z" />
    <glyph glyph-name="section" unicode="&#xa7;" horiz-adv-x="499" 
d="M70 -47h86c-2 -36 5 -66 81 -66c61 0 92 29 92 81c0 43 -23 63 -86 82c-66 20 -150 59 -150 163c0 95 49 174 147 203c-33 20 -65 55 -65 115c0 84 69 160 199 160c120 0 158 -74 148 -144h-86c2 36 -4 66 -66 66c-70 0 -107 -29 -107 -75c0 -42 23 -65 86 -85
c67 -21 149 -46 149 -160c0 -103 -45 -176 -144 -209c34 -19 63 -58 63 -110c0 -106 -85 -165 -194 -165c-106 0 -168 55 -153 144zM406 250l3 14c12 57 -12 97 -91 97c-85 0 -119 -41 -133 -111l-3 -15c-12 -61 27 -96 92 -96c70 0 114 25 132 111z" />
    <glyph glyph-name="dieresis" unicode="&#xa8;" horiz-adv-x="463" 
d="M104 600l17 90h90l-17 -90h-90zM314 600l17 90h90l-17 -90h-90z" />
    <glyph glyph-name="copyright" unicode="&#xa9;" horiz-adv-x="980" 
d="M96 250c0 246 197 440 440 440s440 -194 440 -440s-197 -440 -440 -440s-440 194 -440 440zM176 250c0 -205 158 -369 360 -369s360 164 360 369s-158 368 -360 368s-360 -163 -360 -368zM655 120l62 -44c-31 -58 -92 -84 -173 -84c-137 0 -216 88 -216 226v66
c0 142 81 224 216 224c75 0 137 -27 173 -78l-63 -44c-22 32 -64 50 -110 50c-86 0 -136 -58 -136 -152v-66c0 -86 40 -154 136 -154c47 0 90 16 111 56z" />
    <glyph glyph-name="ordfeminine" unicode="&#xaa;" horiz-adv-x="316" 
d="M113 453c0 75 53 105 138 105h76l5 28c8 44 -4 57 -56 57c-35 0 -58 -9 -82 -38l-38 32c29 36 68 55 128 55c79 0 116 -33 103 -101l-42 -217h-54l7 30c-24 -29 -47 -34 -88 -34c-53 0 -97 28 -97 83zM315 496l3 16h-72c-68 0 -78 -24 -78 -51c0 -31 21 -42 54 -42
c46 0 81 14 93 77z" />
    <glyph glyph-name="guillemotleft" unicode="&#xab;" horiz-adv-x="519" 
d="M85 283l277 231l-22 -110l-155 -130l105 -129l-18 -93zM284 283l277 231l-22 -110l-155 -130l105 -129l-18 -93z" />
    <glyph glyph-name="logicalnot" unicode="&#xac;" 
d="M513 187h-74v127h-359v78h433v-205z" />
    <glyph glyph-name="uni00AD" unicode="&#xad;" horiz-adv-x="319" 
d="M78 253v72h259v-72h-259z" />
    <glyph glyph-name="registered" unicode="&#xae;" horiz-adv-x="576" 
d="M91 501c0 139 114 253 253 253s253 -114 253 -253s-114 -253 -253 -253s-253 114 -253 253zM148 501c0 -108 88 -196 196 -196s196 88 196 196s-88 196 -196 196s-196 -88 -196 -196zM294 374h-52v261h107c72 0 97 -43 97 -79c0 -41 -21 -66 -56 -78l69 -104h-59l-64 97
h-42v-97zM294 515h44c39 0 56 12 56 40c0 24 -18 35 -51 35h-49v-75z" />
    <glyph glyph-name="macron" unicode="&#xaf;" horiz-adv-x="448" 
d="M122 600l13 72h269l-13 -72h-269z" />
    <glyph glyph-name="degree" unicode="&#xb0;" horiz-adv-x="308" 
d="M76 559c0 76 60 134 134 134s134 -58 134 -134s-60 -134 -134 -134s-134 58 -134 134zM144 559c0 -38 29 -68 66 -68s65 30 65 68s-28 67 -65 67s-66 -29 -66 -67z" />
    <glyph glyph-name="plusminus" unicode="&#xb1;" 
d="M112 358v72h158v159h72v-159h159v-72h-159v-128h-72v128h-158zM112 128v72h389v-72h-389z" />
    <glyph glyph-name="twosuperior" unicode="&#xb2;" horiz-adv-x="278" 
d="M328 424l-10 -50h-207l10 50l123 102c37 31 58 51 58 82c0 22 -12 35 -36 35c-32 0 -51 -18 -59 -47h-52c12 59 58 97 121 97c51 0 82 -34 82 -75c0 -49 -25 -82 -72 -121l-89 -73h131z" />
    <glyph glyph-name="threesuperior" unicode="&#xb3;" horiz-adv-x="301" 
d="M207 512l10 50h19c50 0 68 20 68 47c0 23 -12 34 -36 34c-35 0 -48 -15 -57 -38h-54c10 50 54 88 118 88c53 0 84 -31 84 -75c0 -42 -26 -71 -68 -81c25 -9 45 -32 45 -67c0 -61 -49 -99 -115 -99c-64 0 -102 42 -96 90h55c0 -23 13 -40 47 -40s55 16 55 47
c0 28 -10 44 -56 44h-19z" />
    <glyph glyph-name="acute" unicode="&#xb4;" horiz-adv-x="415" 
d="M309 567l101 158h96l-122 -158h-75z" />
    <glyph glyph-name="mu" unicode="&#xb5;" 
d="M107 -137h-80l124 637h80l-60 -309c-20 -101 30 -125 89 -125c75 0 133 53 146 122l61 312h80l-97 -500h-80l9 49c-32 -38 -71 -57 -136 -57c-46 0 -86 16 -104 36z" />
    <glyph glyph-name="paragraph" unicode="&#xb6;" horiz-adv-x="595" 
d="M551 690v-880h-86v802h-88v-802h-86v500c-105 0 -190 85 -190 190s85 190 190 190h260z" />
    <glyph glyph-name="periodcentered" unicode="&#xb7;" horiz-adv-x="216" 
d="M156 396v-96h-96v96h96z" />
    <glyph glyph-name="cedilla" unicode="&#xb8;" horiz-adv-x="343" 
d="M205 -69l37 94l56 -3l-21 -45c30 -9 49 -29 49 -61c0 -62 -58 -95 -129 -95c-14 0 -28 1 -36 3l22 52c6 -1 12 -1 19 -1c23 0 53 5 53 32c0 21 -27 24 -50 24z" />
    <glyph glyph-name="onesuperior" unicode="&#xb9;" horiz-adv-x="277" 
d="M315 690l-61 -316h-54l49 254l-65 -41l12 60l65 43h54z" />
    <glyph glyph-name="ordmasculine" unicode="&#xba;" horiz-adv-x="337" 
d="M409 555l-8 -45c-15 -80 -71 -139 -160 -139c-82 0 -123 54 -106 139l9 45c17 87 79 138 159 138c82 0 123 -50 106 -138zM250 421c49 0 87 33 97 89l8 45c11 62 -15 88 -62 88c-46 0 -84 -26 -95 -88l-8 -45c-10 -57 8 -89 60 -89z" />
    <glyph glyph-name="guillemotright" unicode="&#xbb;" horiz-adv-x="519" 
d="M345 283l-277 -231l22 110l155 130l-105 129l18 93zM544 283l-277 -231l22 110l155 130l-105 129l18 93z" />
    <glyph glyph-name="onequarter" unicode="&#xbc;" horiz-adv-x="604" 
d="M299 690l-61 -316h-54l49 254l-65 -41l12 60l65 43h54zM502 316h69l-163 -205h80l11 56h54l-11 -56h39l-10 -50h-39l-12 -61h-54l12 61h-157l8 43zM613 690h85l-602 -690h-86z" />
    <glyph glyph-name="onehalf" unicode="&#xbd;" horiz-adv-x="605" 
d="M299 690l-61 -316h-54l49 254l-65 -41l12 60l65 43h54zM575 50l-10 -50h-207l10 50l123 102c37 31 58 51 58 82c0 22 -12 35 -36 35c-32 0 -51 -18 -59 -47h-52c12 59 58 97 121 97c51 0 82 -34 82 -75c0 -49 -25 -82 -72 -121l-89 -73h131zM613 690h85l-602 -690h-86z
" />
    <glyph glyph-name="threequarters" unicode="&#xbe;" horiz-adv-x="604" 
d="M189 512l10 50h19c50 0 68 20 68 47c0 23 -12 34 -36 34c-35 0 -48 -15 -57 -38h-54c10 50 54 88 118 88c53 0 84 -31 84 -75c0 -42 -26 -71 -68 -81c25 -9 45 -32 45 -67c0 -61 -49 -99 -115 -99c-64 0 -102 42 -96 90h55c0 -23 13 -40 47 -40s55 16 55 47
c0 28 -10 44 -56 44h-19zM502 316h69l-163 -205h80l11 56h54l-11 -56h39l-10 -50h-39l-12 -61h-54l12 61h-157l8 43zM613 690h85l-602 -690h-86z" />
    <glyph glyph-name="questiondown" unicode="&#xbf;" horiz-adv-x="486" 
d="M272 311h80l-13 -64c-8 -43 -21 -67 -51 -90l-50 -38c-76 -58 -107 -91 -107 -155c0 -60 36 -85 93 -85c73 0 122 33 137 108h82c-20 -118 -111 -185 -232 -185c-101 0 -167 59 -167 155c0 104 66 154 144 218l34 28c25 21 36 35 43 71zM282 404l19 96h96l-19 -96h-96z
" />
    <glyph glyph-name="Agrave" unicode="&#xc0;" horiz-adv-x="580" 
d="M104 0h-94l374 690h80l106 -690h-86l-23 158h-273zM402 563l-172 -327h219zM411 876l55 -129h-77l-78 129h100z" />
    <glyph glyph-name="Aacute" unicode="&#xc1;" horiz-adv-x="580" 
d="M104 0h-94l374 690h80l106 -690h-86l-23 158h-273zM402 563l-172 -327h219zM401 747l105 129h100l-128 -129h-77z" />
    <glyph glyph-name="Acircumflex" unicode="&#xc2;" horiz-adv-x="580" 
d="M104 0h-94l374 690h80l106 -690h-86l-23 158h-273zM402 563l-172 -327h219zM415 879h92l110 -142h-92l-70 91l-104 -91h-102z" />
    <glyph glyph-name="Atilde" unicode="&#xc3;" horiz-adv-x="580" 
d="M104 0h-94l374 690h80l106 -690h-86l-23 158h-273zM402 563l-172 -327h219zM507 762c-44 0 -74 27 -115 27c-21 0 -43 -10 -59 -26l-47 49c27 31 65 50 106 50c43 0 73 -27 116 -27c19 0 41 10 57 26l47 -49c-27 -31 -65 -50 -105 -50z" />
    <glyph glyph-name="Adieresis" unicode="&#xc4;" horiz-adv-x="580" 
d="M104 0h-94l374 690h80l106 -690h-86l-23 158h-273zM402 563l-172 -327h219zM290 779l17 90h90l-17 -90h-90zM500 779l17 90h90l-17 -90h-90z" />
    <glyph glyph-name="Aring" unicode="&#xc5;" horiz-adv-x="580" 
d="M104 0h-94l354 653c-30 17 -49 46 -49 84c0 61 49 99 109 99c61 0 110 -38 110 -99c0 -44 -26 -76 -64 -90l100 -647h-86l-23 158h-273zM402 563l-172 -327h219zM367 737c0 -31 26 -47 57 -47c32 0 57 16 57 47c0 32 -25 47 -57 47c-31 0 -57 -15 -57 -47z" />
    <glyph glyph-name="AE" unicode="&#xc6;" horiz-adv-x="857" 
d="M113 0h-103l525 690h416l-15 -78h-330l-42 -216h300l-15 -78h-300l-47 -240h330l-15 -78h-416l31 158h-201zM289 236h158l56 285z" />
    <glyph glyph-name="Ccedilla" unicode="&#xc7;" horiz-adv-x="578" 
d="M255 -69l24 62c-137 10 -212 104 -170 314l15 76c44 223 152 315 311 315c136 0 205 -69 205 -223h-84c0 111 -40 145 -136 145c-114 0 -175 -59 -210 -237l-15 -76c-33 -168 7 -237 118 -237c102 0 157 47 192 145h83c-40 -137 -123 -213 -254 -222l-7 -16
c30 -9 49 -29 49 -61c0 -62 -58 -95 -129 -95c-14 0 -28 1 -36 3l22 52c6 -1 12 -1 19 -1c23 0 53 5 53 32c0 21 -27 24 -50 24z" />
    <glyph glyph-name="Egrave" unicode="&#xc8;" horiz-adv-x="541" 
d="M219 690h416l-15 -78h-330l-42 -216h300l-15 -78h-300l-47 -240h330l-15 -78h-416zM443 876l55 -129h-77l-78 129h100z" />
    <glyph glyph-name="Eacute" unicode="&#xc9;" horiz-adv-x="541" 
d="M219 690h416l-15 -78h-330l-42 -216h300l-15 -78h-300l-47 -240h330l-15 -78h-416zM390 747l105 129h100l-128 -129h-77z" />
    <glyph glyph-name="Ecircumflex" unicode="&#xca;" horiz-adv-x="541" 
d="M219 690h416l-15 -78h-330l-42 -216h300l-15 -78h-300l-47 -240h330l-15 -78h-416zM418 879h92l110 -142h-92l-70 91l-104 -91h-102z" />
    <glyph glyph-name="Edieresis" unicode="&#xcb;" horiz-adv-x="541" 
d="M219 690h416l-15 -78h-330l-42 -216h300l-15 -78h-300l-47 -240h330l-15 -78h-416zM293 779l17 90h90l-17 -90h-90zM503 779l17 90h90l-17 -90h-90z" />
    <glyph glyph-name="Igrave" unicode="&#xcc;" horiz-adv-x="276" 
d="M315 690l-134 -690h-86l134 690h86zM272 876l55 -129h-77l-78 129h100z" />
    <glyph glyph-name="Iacute" unicode="&#xcd;" horiz-adv-x="276" 
d="M315 690l-134 -690h-86l134 690h86zM240 747l105 129h100l-128 -129h-77z" />
    <glyph glyph-name="Icircumflex" unicode="&#xce;" horiz-adv-x="276" 
d="M315 690l-134 -690h-86l134 690h86zM263 879h92l110 -142h-92l-70 91l-104 -91h-102z" />
    <glyph glyph-name="Idieresis" unicode="&#xcf;" horiz-adv-x="276" 
d="M315 690l-134 -690h-86l134 690h86zM139 779l17 90h90l-17 -90h-90zM349 779l17 90h90l-17 -90h-90z" />
    <glyph glyph-name="Eth" unicode="&#xd0;" horiz-adv-x="613" 
d="M52 318l15 78h103l57 294h220c153 0 233 -86 190 -309l-14 -72c-43 -223 -157 -309 -310 -309h-220l62 318h-103zM328 78c106 0 176 60 209 231l14 72c33 171 -13 231 -119 231h-134l-42 -216h180l-15 -78h-181l-46 -240h134z" />
    <glyph glyph-name="Ntilde" unicode="&#xd1;" horiz-adv-x="638" 
d="M601 690h86l-134 -690h-84l-194 530l-104 -530h-86l134 690h82l196 -535zM536 762c-44 0 -74 27 -115 27c-21 0 -43 -10 -59 -26l-47 49c27 31 65 50 106 50c43 0 73 -27 116 -27c19 0 41 10 57 26l47 -49c-27 -31 -65 -50 -105 -50z" />
    <glyph glyph-name="Ograve" unicode="&#xd2;" horiz-adv-x="600" 
d="M624 383l-15 -76c-48 -243 -155 -315 -304 -315c-161 0 -238 104 -196 315l15 76c44 223 152 315 307 315c143 0 238 -88 193 -315zM210 383l-15 -76c-34 -171 9 -237 118 -237c112 0 174 56 210 237l15 76c33 168 -2 237 -118 237c-119 0 -176 -66 -210 -237zM450 876
l55 -129h-77l-78 129h100z" />
    <glyph glyph-name="Oacute" unicode="&#xd3;" horiz-adv-x="600" 
d="M624 383l-15 -76c-48 -243 -155 -315 -304 -315c-161 0 -238 104 -196 315l15 76c44 223 152 315 307 315c143 0 238 -88 193 -315zM210 383l-15 -76c-34 -171 9 -237 118 -237c112 0 174 56 210 237l15 76c33 168 -2 237 -118 237c-119 0 -176 -66 -210 -237zM373 747
l105 129h100l-128 -129h-77z" />
    <glyph glyph-name="Ocircumflex" unicode="&#xd4;" horiz-adv-x="600" 
d="M624 383l-15 -76c-48 -243 -155 -315 -304 -315c-161 0 -238 104 -196 315l15 76c44 223 152 315 307 315c143 0 238 -88 193 -315zM210 383l-15 -76c-34 -171 9 -237 118 -237c112 0 174 56 210 237l15 76c33 168 -2 237 -118 237c-119 0 -176 -66 -210 -237zM425 879
h92l110 -142h-92l-70 91l-104 -91h-102z" />
    <glyph glyph-name="Otilde" unicode="&#xd5;" horiz-adv-x="600" 
d="M624 383l-15 -76c-48 -243 -155 -315 -304 -315c-161 0 -238 104 -196 315l15 76c44 223 152 315 307 315c143 0 238 -88 193 -315zM210 383l-15 -76c-34 -171 9 -237 118 -237c112 0 174 56 210 237l15 76c33 168 -2 237 -118 237c-119 0 -176 -66 -210 -237zM516 762
c-44 0 -74 27 -115 27c-21 0 -43 -10 -59 -26l-47 49c27 31 65 50 106 50c43 0 73 -27 116 -27c19 0 41 10 57 26l47 -49c-27 -31 -65 -50 -105 -50z" />
    <glyph glyph-name="Odieresis" unicode="&#xd6;" horiz-adv-x="600" 
d="M624 383l-15 -76c-48 -243 -155 -315 -304 -315c-161 0 -238 104 -196 315l15 76c44 223 152 315 307 315c143 0 238 -88 193 -315zM210 383l-15 -76c-34 -171 9 -237 118 -237c112 0 174 56 210 237l15 76c33 168 -2 237 -118 237c-119 0 -176 -66 -210 -237zM300 779
l17 90h90l-17 -90h-90zM510 779l17 90h90l-17 -90h-90z" />
    <glyph glyph-name="multiply" unicode="&#xd7;" 
d="M180 177l-51 51l126 126l-126 127l50 50l127 -127l127 127l50 -50l-127 -127l127 -126l-51 -51l-126 126z" />
    <glyph glyph-name="Oslash" unicode="&#xd8;" horiz-adv-x="600" 
d="M163 -116h-86l83 152c-57 49 -77 139 -51 271l15 76c44 223 152 315 307 315c30 0 59 -5 84 -13l70 127h85l-90 -165c49 -48 70 -133 44 -264l-15 -76c-48 -243 -155 -315 -304 -315c-29 0 -55 4 -78 10zM210 383l-15 -76c-18 -91 -15 -153 9 -190l272 496
c-16 5 -35 7 -56 7c-119 0 -176 -66 -210 -237zM538 383c16 84 16 143 -3 181l-268 -489c14 -4 29 -5 46 -5c112 0 174 56 210 237z" />
    <glyph glyph-name="Ugrave" unicode="&#xd9;" horiz-adv-x="670" 
d="M633 690h87l-80 -409c-41 -211 -154 -289 -300 -289c-154 0 -237 103 -201 288l80 410h86l-80 -410c-29 -146 15 -210 118 -210c126 0 184 76 210 210zM488 876l55 -129h-77l-78 129h100z" />
    <glyph glyph-name="Uacute" unicode="&#xda;" horiz-adv-x="670" 
d="M633 690h87l-80 -409c-41 -211 -154 -289 -300 -289c-154 0 -237 103 -201 288l80 410h86l-80 -410c-29 -146 15 -210 118 -210c126 0 184 76 210 210zM415 747l105 129h100l-128 -129h-77z" />
    <glyph glyph-name="Ucircumflex" unicode="&#xdb;" horiz-adv-x="670" 
d="M633 690h87l-80 -409c-41 -211 -154 -289 -300 -289c-154 0 -237 103 -201 288l80 410h86l-80 -410c-29 -146 15 -210 118 -210c126 0 184 76 210 210zM460 879h92l110 -142h-92l-70 91l-104 -91h-102z" />
    <glyph glyph-name="Udieresis" unicode="&#xdc;" horiz-adv-x="670" 
d="M633 690h87l-80 -409c-41 -211 -154 -289 -300 -289c-154 0 -237 103 -201 288l80 410h86l-80 -410c-29 -146 15 -210 118 -210c126 0 184 76 210 210zM335 779l17 90h90l-17 -90h-90zM545 779l17 90h90l-17 -90h-90z" />
    <glyph glyph-name="Yacute" unicode="&#xdd;" horiz-adv-x="556" 
d="M154 690h88l106 -300l219 300h103l-292 -394l-57 -296h-86l57 296zM375 747l105 129h100l-128 -129h-77z" />
    <glyph glyph-name="Thorn" unicode="&#xde;" horiz-adv-x="588" 
d="M333 143h-134l-28 -143h-86l134 690h86l-23 -120h134c138 0 214 -74 214 -185c0 -161 -112 -242 -297 -242zM214 221h134c142 0 195 62 195 154c0 83 -42 117 -142 117h-134z" />
    <glyph glyph-name="germandbls" unicode="&#xdf;" horiz-adv-x="527" 
d="M574 579c0 -49 -18 -91 -82 -114c40 -18 49 -60 39 -113l-42 -212c-23 -120 -71 -140 -176 -140h-40l14 72h40c48 0 72 16 82 68l41 212c11 56 1 76 -54 76h-40l14 72h40c53 0 82 25 82 69c0 30 -15 57 -97 57c-93 0 -135 -32 -155 -135l-95 -491h-80l97 499
c25 128 95 199 242 199c118 0 170 -60 170 -119z" />
    <glyph glyph-name="agrave" unicode="&#xe0;" horiz-adv-x="491" 
d="M65 124c0 115 83 165 210 165h127l11 58c14 71 -16 87 -94 87c-60 0 -90 -8 -127 -54l-54 45c46 58 102 83 193 83c125 0 184 -49 162 -161l-67 -347h-80l10 45c-33 -45 -74 -53 -132 -53c-94 0 -159 46 -159 132zM383 192l6 29h-119c-97 0 -124 -35 -124 -92
c0 -45 35 -63 86 -63c74 0 130 14 151 126zM377 725l39 -158h-75l-60 158h96z" />
    <glyph glyph-name="aacute" unicode="&#xe1;" horiz-adv-x="491" 
d="M65 124c0 115 83 165 210 165h127l11 58c14 71 -16 87 -94 87c-60 0 -90 -8 -127 -54l-54 45c46 58 102 83 193 83c125 0 184 -49 162 -161l-67 -347h-80l10 45c-33 -45 -74 -53 -132 -53c-94 0 -159 46 -159 132zM383 192l6 29h-119c-97 0 -124 -35 -124 -92
c0 -45 35 -63 86 -63c74 0 130 14 151 126zM309 567l101 158h96l-122 -158h-75z" />
    <glyph glyph-name="acircumflex" unicode="&#xe2;" horiz-adv-x="491" 
d="M65 124c0 115 83 165 210 165h127l11 58c14 71 -16 87 -94 87c-60 0 -90 -8 -127 -54l-54 45c46 58 102 83 193 83c125 0 184 -49 162 -161l-67 -347h-80l10 45c-33 -45 -74 -53 -132 -53c-94 0 -159 46 -159 132zM383 192l6 29h-119c-97 0 -124 -35 -124 -92
c0 -45 35 -63 86 -63c74 0 130 14 151 126zM342 700h92l80 -142h-78l-51 97l-89 -97h-90z" />
    <glyph glyph-name="atilde" unicode="&#xe3;" horiz-adv-x="491" 
d="M65 124c0 115 83 165 210 165h127l11 58c14 71 -16 87 -94 87c-60 0 -90 -8 -127 -54l-54 45c46 58 102 83 193 83c125 0 184 -49 162 -161l-67 -347h-80l10 45c-33 -45 -74 -53 -132 -53c-94 0 -159 46 -159 132zM383 192l6 29h-119c-97 0 -124 -35 -124 -92
c0 -45 35 -63 86 -63c74 0 130 14 151 126zM434 589c-44 0 -74 27 -115 27c-21 0 -43 -10 -59 -26l-47 49c27 31 65 50 106 50c43 0 73 -27 116 -27c19 0 41 10 57 26l47 -49c-27 -31 -65 -50 -105 -50z" />
    <glyph glyph-name="adieresis" unicode="&#xe4;" horiz-adv-x="491" 
d="M65 124c0 115 83 165 210 165h127l11 58c14 71 -16 87 -94 87c-60 0 -90 -8 -127 -54l-54 45c46 58 102 83 193 83c125 0 184 -49 162 -161l-67 -347h-80l10 45c-33 -45 -74 -53 -132 -53c-94 0 -159 46 -159 132zM383 192l6 29h-119c-97 0 -124 -35 -124 -92
c0 -45 35 -63 86 -63c74 0 130 14 151 126zM208 600l17 90h90l-17 -90h-90zM418 600l17 90h90l-17 -90h-90z" />
    <glyph glyph-name="aring" unicode="&#xe5;" horiz-adv-x="491" 
d="M65 124c0 115 83 165 210 165h127l11 58c14 71 -16 87 -94 87c-60 0 -90 -8 -127 -54l-54 45c46 58 102 83 193 83c125 0 184 -49 162 -161l-67 -347h-80l10 45c-33 -45 -74 -53 -132 -53c-94 0 -159 46 -159 132zM383 192l6 29h-119c-97 0 -124 -35 -124 -92
c0 -45 35 -63 86 -63c74 0 130 14 151 126zM262 646c0 61 49 110 109 110c61 0 110 -49 110 -110c0 -60 -49 -109 -110 -109c-60 0 -109 49 -109 109zM314 646c0 -31 26 -57 57 -57c32 0 57 26 57 57c0 32 -25 57 -57 57c-31 0 -57 -25 -57 -57z" />
    <glyph glyph-name="ae" unicode="&#xe6;" horiz-adv-x="794" 
d="M695 122l55 -46c-46 -61 -105 -84 -192 -84c-66 0 -133 33 -152 91c-44 -79 -115 -91 -189 -91c-89 0 -153 45 -153 131c0 121 91 166 219 166h119l11 58c14 71 -7 87 -94 87c-60 0 -91 -7 -128 -53l-54 44c46 58 102 83 197 83c84 0 127 -26 144 -74c36 48 94 74 164 74
c116 0 181 -81 156 -212l-12 -66h-316l-2 -10c-17 -86 11 -156 98 -156c65 0 101 21 129 58zM384 194l5 27h-119c-97 0 -125 -39 -125 -86c0 -52 34 -69 87 -69c73 0 132 20 152 128zM628 436c-85 0 -127 -52 -144 -136h235c17 102 -15 136 -91 136z" />
    <glyph glyph-name="ccedilla" unicode="&#xe7;" horiz-adv-x="444" 
d="M199 -69l25 64c-110 16 -165 103 -141 223l13 66c29 149 114 224 256 224c78 0 132 -29 158 -80l-66 -40c-23 38 -57 48 -101 48c-98 0 -146 -46 -167 -152l-13 -66c-17 -86 10 -154 106 -154c52 0 87 18 119 58l58 -47c-41 -54 -98 -80 -168 -83l-7 -15
c30 -9 49 -29 49 -61c0 -62 -58 -95 -129 -95c-14 0 -28 1 -36 3l22 52c6 -1 12 -1 19 -1c23 0 53 5 53 32c0 21 -27 24 -50 24z" />
    <glyph glyph-name="egrave" unicode="&#xe8;" horiz-adv-x="488" 
d="M388 122l58 -47c-48 -61 -107 -83 -188 -83c-120 0 -203 87 -176 226l13 66c28 142 110 224 241 224c132 0 180 -92 155 -224l-10 -52h-316l-3 -14c-18 -86 15 -154 101 -154c62 0 96 21 125 58zM327 436c-92 0 -128 -50 -149 -134h235c15 86 -2 134 -86 134zM371 725
l39 -158h-75l-60 158h96z" />
    <glyph glyph-name="eacute" unicode="&#xe9;" horiz-adv-x="488" 
d="M388 122l58 -47c-48 -61 -107 -83 -188 -83c-120 0 -203 87 -176 226l13 66c28 142 110 224 241 224c132 0 180 -92 155 -224l-10 -52h-316l-3 -14c-18 -86 15 -154 101 -154c62 0 96 21 125 58zM327 436c-92 0 -128 -50 -149 -134h235c15 86 -2 134 -86 134zM298 567
l101 158h96l-122 -158h-75z" />
    <glyph glyph-name="ecircumflex" unicode="&#xea;" horiz-adv-x="488" 
d="M388 122l58 -47c-48 -61 -107 -83 -188 -83c-120 0 -203 87 -176 226l13 66c28 142 110 224 241 224c132 0 180 -92 155 -224l-10 -52h-316l-3 -14c-18 -86 15 -154 101 -154c62 0 96 21 125 58zM327 436c-92 0 -128 -50 -149 -134h235c15 86 -2 134 -86 134zM332 700h92
l80 -142h-78l-51 97l-89 -97h-90z" />
    <glyph glyph-name="edieresis" unicode="&#xeb;" horiz-adv-x="488" 
d="M388 122l58 -47c-48 -61 -107 -83 -188 -83c-120 0 -203 87 -176 226l13 66c28 142 110 224 241 224c132 0 180 -92 155 -224l-10 -52h-316l-3 -14c-18 -86 15 -154 101 -154c62 0 96 21 125 58zM327 436c-92 0 -128 -50 -149 -134h235c15 86 -2 134 -86 134zM204 600
l17 90h90l-17 -90h-90zM414 600l17 90h90l-17 -90h-90z" />
    <glyph glyph-name="igrave" unicode="&#xec;" horiz-adv-x="230" 
d="M75 0l97 500h80l-97 -500h-80zM226 725l39 -158h-75l-60 158h96z" />
    <glyph glyph-name="iacute" unicode="&#xed;" horiz-adv-x="230" 
d="M75 0l97 500h80l-97 -500h-80zM185 567l101 158h96l-122 -158h-75z" />
    <glyph glyph-name="icircumflex" unicode="&#xee;" horiz-adv-x="230" 
d="M75 0l97 500h80l-97 -500h-80zM209 700h92l80 -142h-78l-51 97l-89 -97h-90z" />
    <glyph glyph-name="idieresis" unicode="&#xef;" horiz-adv-x="230" 
d="M75 0l97 500h80l-97 -500h-80zM82 600l17 90h90l-17 -90h-90zM292 600l17 90h90l-17 -90h-90z" />
    <glyph glyph-name="eth" unicode="&#xf0;" horiz-adv-x="496" 
d="M283 566l44 55l-53 23l47 62l53 -25l48 61l53 -37l-42 -54c114 -62 124 -128 99 -261l-33 -172c-25 -130 -94 -226 -252 -226c-109 0 -191 88 -164 226l13 66c28 142 109 224 251 224c52 0 96 -15 120 -48c12 70 -14 96 -80 131l-49 -61zM261 64c102 0 141 69 158 154
l13 66c19 95 -7 152 -99 152c-93 0 -139 -58 -157 -152l-13 -66c-17 -86 6 -154 98 -154z" />
    <glyph glyph-name="ntilde" unicode="&#xf1;" horiz-adv-x="526" 
d="M65 0l97 500h80l-9 -49c32 37 71 56 145 57c97 1 171 -56 144 -196l-61 -312h-80l60 311c21 107 -26 123 -90 123c-75 0 -129 -39 -145 -122l-61 -312h-80zM449 589c-44 0 -74 27 -115 27c-21 0 -43 -10 -59 -26l-47 49c27 31 65 50 106 50c43 0 73 -27 116 -27
c19 0 41 10 57 26l47 -49c-27 -31 -65 -50 -105 -50z" />
    <glyph glyph-name="ograve" unicode="&#xf2;" horiz-adv-x="496" 
d="M512 284l-13 -66c-26 -132 -97 -226 -248 -226c-117 0 -194 92 -168 226l13 66c30 154 120 224 251 224c133 0 192 -87 165 -224zM261 64c95 0 140 61 158 154l13 66c21 109 -17 152 -99 152s-136 -43 -157 -152l-13 -66c-18 -92 11 -154 98 -154zM372 725l39 -158h-75
l-60 158h96z" />
    <glyph glyph-name="oacute" unicode="&#xf3;" horiz-adv-x="496" 
d="M512 284l-13 -66c-26 -132 -97 -226 -248 -226c-117 0 -194 92 -168 226l13 66c30 154 120 224 251 224c133 0 192 -87 165 -224zM261 64c95 0 140 61 158 154l13 66c21 109 -17 152 -99 152s-136 -43 -157 -152l-13 -66c-18 -92 11 -154 98 -154zM305 567l101 158h96
l-122 -158h-75z" />
    <glyph glyph-name="ocircumflex" unicode="&#xf4;" horiz-adv-x="496" 
d="M512 284l-13 -66c-26 -132 -97 -226 -248 -226c-117 0 -194 92 -168 226l13 66c30 154 120 224 251 224c133 0 192 -87 165 -224zM261 64c95 0 140 61 158 154l13 66c21 109 -17 152 -99 152s-136 -43 -157 -152l-13 -66c-18 -92 11 -154 98 -154zM342 700h92l80 -142
h-78l-51 97l-89 -97h-90z" />
    <glyph glyph-name="otilde" unicode="&#xf5;" horiz-adv-x="496" 
d="M512 284l-13 -66c-26 -132 -97 -226 -248 -226c-117 0 -194 92 -168 226l13 66c30 154 120 224 251 224c133 0 192 -87 165 -224zM261 64c95 0 140 61 158 154l13 66c21 109 -17 152 -99 152s-136 -43 -157 -152l-13 -66c-18 -92 11 -154 98 -154zM434 589
c-44 0 -74 27 -115 27c-21 0 -43 -10 -59 -26l-47 49c27 31 65 50 106 50c43 0 73 -27 116 -27c19 0 41 10 57 26l47 -49c-27 -31 -65 -50 -105 -50z" />
    <glyph glyph-name="odieresis" unicode="&#xf6;" horiz-adv-x="496" 
d="M512 284l-13 -66c-26 -132 -97 -226 -248 -226c-117 0 -194 92 -168 226l13 66c30 154 120 224 251 224c133 0 192 -87 165 -224zM261 64c95 0 140 61 158 154l13 66c21 109 -17 152 -99 152s-136 -43 -157 -152l-13 -66c-18 -92 11 -154 98 -154zM214 600l17 90h90
l-17 -90h-90zM424 600l17 90h90l-17 -90h-90z" />
    <glyph glyph-name="divide" unicode="&#xf7;" 
d="M111 318v72h389v-72h-389zM259 149v90h90v-90h-90zM259 469v90h90v-90h-90z" />
    <glyph glyph-name="oslash" unicode="&#xf8;" horiz-adv-x="496" 
d="M47 -79l77 121c-38 40 -56 101 -41 176l13 66c30 154 120 224 251 224c24 0 46 -3 66 -9l52 83h83l-74 -117c40 -39 53 -101 38 -181l-13 -66c-26 -132 -97 -226 -248 -226c-25 0 -48 4 -69 12l-52 -83h-83zM261 64c95 0 140 61 158 154l13 66c9 47 7 82 -5 106
l-204 -322c11 -3 24 -4 38 -4zM163 218c-8 -42 -7 -78 6 -104l201 318c-11 3 -24 4 -37 4c-82 0 -136 -43 -157 -152z" />
    <glyph glyph-name="ugrave" unicode="&#xf9;" horiz-adv-x="526" 
d="M558 500l-97 -500h-80l9 49c-33 -36 -68 -57 -140 -57c-98 0 -176 56 -149 196l61 312h79l-60 -311c-21 -107 31 -123 90 -123c85 0 132 48 146 122l61 312h80zM404 725l39 -158h-75l-60 158h96z" />
    <glyph glyph-name="uacute" unicode="&#xfa;" horiz-adv-x="526" 
d="M558 500l-97 -500h-80l9 49c-33 -36 -68 -57 -140 -57c-98 0 -176 56 -149 196l61 312h79l-60 -311c-21 -107 31 -123 90 -123c85 0 132 48 146 122l61 312h80zM329 567l101 158h96l-122 -158h-75z" />
    <glyph glyph-name="ucircumflex" unicode="&#xfb;" horiz-adv-x="526" 
d="M558 500l-97 -500h-80l9 49c-33 -36 -68 -57 -140 -57c-98 0 -176 56 -149 196l61 312h79l-60 -311c-21 -107 31 -123 90 -123c85 0 132 48 146 122l61 312h80zM357 700h92l80 -142h-78l-51 97l-89 -97h-90z" />
    <glyph glyph-name="udieresis" unicode="&#xfc;" horiz-adv-x="526" 
d="M558 500l-97 -500h-80l9 49c-33 -36 -68 -57 -140 -57c-98 0 -176 56 -149 196l61 312h79l-60 -311c-21 -107 31 -123 90 -123c85 0 132 48 146 122l61 312h80zM229 600l17 90h90l-17 -90h-90zM439 600l17 90h90l-17 -90h-90z" />
    <glyph glyph-name="yacute" unicode="&#xfd;" horiz-adv-x="466" 
d="M195 -12l4 8l-97 504h83l74 -390l205 390h89l-275 -516c-64 -120 -103 -174 -243 -174l15 78c66 0 101 12 145 100zM303 567l101 158h96l-122 -158h-75z" />
    <glyph glyph-name="thorn" unicode="&#xfe;" horiz-adv-x="521" 
d="M232 450c35 37 82 58 148 58c124 0 182 -90 156 -224l-13 -66c-29 -145 -108 -226 -242 -226c-61 0 -107 21 -126 58l-47 -240h-80l171 880h80zM285 64c85 0 137 47 158 154l13 66c21 107 -16 152 -98 152c-87 0 -140 -55 -157 -145l-14 -73c-17 -86 6 -154 98 -154z" />
    <glyph glyph-name="ydieresis" unicode="&#xff;" horiz-adv-x="466" 
d="M195 -12l4 8l-97 504h83l74 -390l205 390h89l-275 -516c-64 -120 -103 -174 -243 -174l15 78c66 0 101 12 145 100zM203 600l17 90h90l-17 -90h-90zM413 600l17 90h90l-17 -90h-90z" />
    <glyph glyph-name="OE" unicode="&#x152;" horiz-adv-x="920" 
d="M1014 690l-15 -78h-330l-42 -216h300l-16 -78h-300l-46 -240h330l-15 -78h-416l11 59c-42 -44 -89 -67 -177 -67c-141 0 -233 92 -189 315l15 76c44 223 153 315 311 315c75 0 130 -31 151 -69l12 61h416zM210 383l-15 -76c-34 -171 12 -237 118 -237
c118 0 176 66 210 237l15 76c36 182 -12 237 -118 237c-120 0 -176 -66 -210 -237z" />
    <glyph glyph-name="oe" unicode="&#x153;" horiz-adv-x="824" 
d="M725 122l58 -47c-51 -60 -101 -83 -190 -83c-78 0 -137 34 -157 95c-40 -64 -101 -95 -185 -95c-112 0 -195 88 -168 226l13 66c31 156 120 224 251 224c82 0 129 -38 148 -90c33 53 86 90 178 90c132 0 180 -90 154 -226l-10 -52h-316l-2 -12c-15 -86 13 -154 101 -154
c62 0 97 21 125 58zM261 64c101 0 141 69 158 154l13 66c21 108 -17 152 -99 152s-135 -43 -157 -152l-13 -66c-17 -86 6 -154 98 -154zM659 436c-89 0 -123 -53 -144 -136h235c18 105 -15 136 -91 136z" />
    <glyph glyph-name="Ydieresis" unicode="&#x178;" horiz-adv-x="556" 
d="M154 690h88l106 -300l219 300h103l-292 -394l-57 -296h-86l57 296zM278 779l17 90h90l-17 -90h-90zM488 779l17 90h90l-17 -90h-90z" />
    <glyph glyph-name="afii57929" unicode="&#x2bc;" horiz-adv-x="151" 
d="M229 500l-29 -146l-112 -83l45 229h96z" />
    <glyph glyph-name="tilde" unicode="&#x2dc;" horiz-adv-x="470" 
d="M315 589c-44 0 -74 27 -115 27c-21 0 -43 -10 -59 -26l-47 49c27 31 65 50 106 50c43 0 73 -27 116 -27c19 0 41 10 57 26l47 -49c-27 -31 -65 -50 -105 -50z" />
    <glyph glyph-name="endash" unicode="&#x2013;" horiz-adv-x="509" 
d="M116 253v72h389v-72h-389z" />
    <glyph glyph-name="emdash" unicode="&#x2014;" horiz-adv-x="679" 
d="M76 253v72h639v-72h-639z" />
    <glyph glyph-name="quoteleft" unicode="&#x2018;" horiz-adv-x="216" 
d="M164 534l34 176l112 83l-50 -259h-96z" />
    <glyph glyph-name="quoteright" unicode="&#x2019;" horiz-adv-x="222" 
d="M289 740l-36 -185l-100 -74l50 259h86z" />
    <glyph glyph-name="quotedblleft" unicode="&#x201c;" horiz-adv-x="386" 
d="M164 534l34 176l112 83l-50 -259h-96zM330 534l34 176l112 83l-50 -259h-96z" />
    <glyph glyph-name="quotedblright" unicode="&#x201d;" horiz-adv-x="386" 
d="M465 740l-34 -176l-112 -83l50 259h96zM299 740l-34 -176l-112 -83l50 259h96z" />
    <glyph glyph-name="quotedblbase" unicode="&#x201e;" horiz-adv-x="382" 
d="M340 96l-34 -176l-112 -83l50 259h96zM174 96l-34 -176l-112 -83l50 259h96z" />
    <glyph glyph-name="bullet" unicode="&#x2022;" horiz-adv-x="298" 
d="M121 341c0 46 38 84 84 84s84 -38 84 -84s-38 -84 -84 -84s-84 38 -84 84z" />
    <glyph glyph-name="ellipsis" unicode="&#x2026;" horiz-adv-x="788" 
d="M187 116l-23 -116h-116l23 116h116zM739 116l-23 -116h-116l23 116h116zM463 116l-23 -116h-116l23 116h116z" />
    <glyph glyph-name="perthousand" horiz-adv-x="1045" 
d="M643 690h87l-519 -690h-88zM418 543l-8 -43c-20 -105 -70 -157 -171 -157c-96 0 -135 60 -117 157l8 43c18 97 76 155 169 155c97 0 138 -57 119 -155zM246 402c60 0 88 34 101 99l8 40c14 68 -8 98 -64 98c-54 0 -84 -32 -97 -98l-8 -40c-13 -67 2 -99 60 -99zM742 192
l-8 -43c-20 -105 -70 -157 -171 -157c-96 0 -135 60 -117 157l8 43c18 97 76 155 169 155c97 0 138 -57 119 -155zM570 51c60 0 88 34 101 99l8 40c14 68 -8 98 -64 98c-54 0 -84 -32 -97 -98l-8 -40c-13 -67 2 -99 60 -99zM1062 192l-8 -43c-20 -105 -70 -157 -171 -157
c-96 0 -135 60 -117 157l8 43c18 97 76 155 169 155c97 0 138 -57 119 -155zM890 51c60 0 88 34 101 99l8 40c14 68 -8 98 -64 98c-54 0 -84 -32 -97 -98l-8 -40c-13 -67 2 -99 60 -99z" />
    <glyph glyph-name="guilsinglleft" unicode="&#x2039;" horiz-adv-x="330" 
d="M85 283l277 231l-22 -110l-155 -130l105 -129l-18 -93z" />
    <glyph glyph-name="guilsinglright" unicode="&#x203a;" horiz-adv-x="330" 
d="M345 283l-277 -231l22 110l155 130l-105 129l18 93z" />
    <glyph glyph-name="uni2074" horiz-adv-x="339" 
d="M314 690h69l-163 -205h80l11 56h54l-11 -56h39l-10 -50h-39l-12 -61h-54l12 61h-157l8 43z" />
    <glyph glyph-name="Euro" unicode="&#x20ac;" 
d="M68 309h65l14 72h-65l15 78h68c49 164 123 239 247 239c123 0 176 -81 161 -223h-84c9 120 -23 145 -82 145c-85 0 -122 -40 -156 -161h142l-15 -78h-145l-14 -72h145l-15 -78h-142c-10 -109 14 -161 90 -161c70 0 109 33 142 145h83c-44 -159 -110 -223 -233 -223
c-105 0 -182 78 -168 239h-68z" />
    <glyph glyph-name="afii61352" horiz-adv-x="948" 
d="M1022 536l-9 -45c-19 -96 -70 -163 -178 -163c-89 0 -143 64 -123 163l9 45c20 103 78 162 181 162c96 0 139 -69 120 -162zM844 400c61 0 88 42 98 95l7 37c13 68 -10 94 -61 94c-60 0 -86 -35 -97 -94l-7 -37c-10 -54 4 -95 60 -95zM679 213l14 72h259l-14 -72h-259z
M601 690h86l-134 -690h-84l-194 530l-104 -530h-86l134 690h82l196 -535z" />
    <glyph glyph-name="trademark" unicode="&#x2122;" horiz-adv-x="882" 
d="M533 690l150 -260l150 260h65v-417h-71v278l-115 -198h-64l-109 198v-278h-71v417h65zM86 690h338v-66h-134v-351h-71v351h-133v66z" />
    <glyph glyph-name="dollar.fitted" horiz-adv-x="571" 
d="M398 381c105 -29 165 -79 165 -177c0 -91 -56 -201 -240 -210l-21 -110h-74l21 110c-85 11 -150 53 -182 114l75 46c30 -50 68 -75 122 -82l47 242c-103 28 -157 82 -157 175c0 91 70 202 231 207l23 116h74l-23 -116c85 -13 131 -57 163 -114l-72 -45
c-22 39 -50 71 -106 79zM383 300l-45 -228c111 7 137 72 137 126c0 47 -20 84 -92 102zM327 397l43 221c-74 1 -128 -49 -128 -120c0 -59 29 -86 85 -101z" />
    <glyph glyph-name="Euro.fitted" horiz-adv-x="615" 
d="M65 309h82l14 72h-82l15 78h86c53 168 150 239 293 239c136 0 205 -72 204 -223h-84c1 107 -37 145 -135 145c-103 0 -159 -49 -191 -161h193l-15 -78h-198l-14 -72h198l-15 -78h-194c-8 -118 40 -161 129 -161c90 0 149 34 192 145h83c-49 -156 -141 -223 -287 -223
c-128 0 -215 71 -203 239h-86z" />
    <glyph glyph-name="cent.fitted" horiz-adv-x="444" 
d="M388 122l58 -47c-38 -50 -84 -74 -155 -81l-22 -110h-74l22 111c-100 18 -159 100 -135 223l13 66c25 128 98 214 221 221l23 117h74l-23 -117c58 -7 98 -35 120 -77l-66 -40c-22 37 -57 48 -101 48c-88 0 -146 -38 -168 -152l-13 -66c-17 -86 10 -154 106 -154
c47 0 89 15 120 58z" />
    <glyph glyph-name="sterling.fitted" horiz-adv-x="499" 
d="M25 0l15 78h71l47 240h-71l15 78h71l2 10c47 233 140 292 263 292c76 0 123 -25 157 -88l-74 -38c-19 37 -47 48 -90 48c-89 0 -134 -35 -170 -214l-2 -10h156l-15 -78h-156l-47 -240h280l-15 -78h-437z" />
    <glyph glyph-name="yen.fitted" horiz-adv-x="556" 
d="M138 224h140l14 72h-140l15 78h107l-120 316h97l102 -300l213 300h104l-230 -316h93l-15 -78h-140l-14 -72h140l-15 -78h-140l-28 -146h-86l28 146h-140z" />
    <glyph glyph-name="currency.fitted" horiz-adv-x="531" 
d="M122 366c0 40 11 78 32 110l-68 68l57 57l67 -68c32 21 70 34 111 34s79 -13 110 -34l69 69l57 -57l-69 -69c21 -31 34 -69 34 -110s-13 -79 -34 -111l69 -68l-57 -57l-69 68c-31 -20 -70 -32 -110 -32c-41 0 -79 12 -110 33l-68 -68l-57 57l68 68c-21 31 -32 69 -32 110
zM208 366c0 -64 49 -117 113 -117c65 0 115 53 115 117s-50 118 -115 118c-64 0 -113 -54 -113 -118z" />
    <glyph glyph-name="uniF639" horiz-adv-x="516" 
d="M552 499l-60 -308c-27 -137 -113 -199 -236 -199c-104 0 -183 75 -159 200l59 306c27 141 120 200 237 200c104 0 183 -82 159 -199zM467 499c15 80 -24 121 -89 121c-63 0 -121 -37 -137 -121l-59 -308c-15 -76 20 -121 89 -121c62 0 120 37 136 121z" />
    <glyph glyph-name="uniF63A" horiz-adv-x="497" 
d="M455 78l-15 -78h-405l14 72l299 287c67 64 110 113 110 174c0 63 -39 88 -93 88c-67 0 -118 -37 -134 -108h-85c22 114 114 185 234 185c101 0 165 -69 165 -155c0 -103 -84 -179 -145 -239l-232 -226h287z" />
    <glyph glyph-name="uniF63B" horiz-adv-x="489" 
d="M241 317l15 78h43c107 0 156 62 156 133c0 59 -30 93 -94 93c-73 0 -120 -40 -134 -99h-82c21 109 119 176 231 176c105 0 166 -68 166 -153c0 -88 -45 -155 -137 -188c51 -22 84 -74 84 -139c0 -127 -91 -226 -236 -226c-131 0 -193 75 -185 181h80
c-2 -67 31 -103 110 -103c87 0 144 60 144 141c0 67 -39 106 -118 106h-43z" />
    <glyph glyph-name="uniF63C" 
d="M394 690h88l-327 -500h201l40 203h86l-40 -203h63l-15 -78h-63l-22 -112h-86l22 112h-299l12 63z" />
    <glyph glyph-name="uniF63D" horiz-adv-x="485" 
d="M323 387c-56 0 -89 -29 -114 -56h-79l70 359h350l-17 -86h-267l-35 -181c27 25 70 45 119 45c95 0 146 -64 146 -163c0 -201 -97 -313 -242 -313c-121 0 -178 76 -173 170h80c5 -58 30 -92 96 -92c90 0 151 75 151 225c0 61 -29 92 -85 92z" />
    <glyph glyph-name="uniF63E" horiz-adv-x="478" 
d="M459 690l-196 -305c20 11 51 15 75 15c90 0 143 -64 143 -154c0 -149 -97 -254 -239 -254c-111 0 -169 67 -169 162c0 73 41 142 78 201l213 335h95zM160 164c0 -61 32 -94 93 -94c78 0 141 65 141 160c0 66 -32 96 -85 96c-87 0 -149 -74 -149 -162z" />
    <glyph glyph-name="uniF63F" horiz-adv-x="428" 
d="M193 491h-78l39 199h388l-15 -78l-338 -612h-93l339 612h-218z" />
    <glyph glyph-name="uniF640" horiz-adv-x="496" 
d="M76 161c0 96 68 174 141 197c-39 23 -69 67 -69 125c0 125 107 215 237 215c93 0 166 -57 166 -154c0 -98 -61 -166 -129 -186c44 -23 77 -67 77 -136c0 -148 -119 -230 -242 -230c-109 0 -181 72 -181 169zM163 174c0 -58 26 -104 101 -104c86 0 148 63 148 144
c0 77 -46 103 -100 103c-77 0 -149 -51 -149 -143zM234 490c0 -54 23 -96 93 -96c79 0 136 61 136 137c0 59 -29 89 -92 89c-85 0 -137 -60 -137 -130z" />
    <glyph glyph-name="uniF641" horiz-adv-x="478" 
d="M153 0l195 304c-20 -11 -51 -14 -70 -14c-94 0 -147 69 -147 161c0 143 105 247 244 247c102 0 164 -63 164 -160c0 -78 -40 -143 -85 -215l-203 -323h-98zM451 524c0 72 -34 96 -91 96c-79 0 -141 -61 -141 -155c0 -64 25 -101 91 -101c86 0 141 80 141 160z" />
    <glyph glyph-name="uniF6BA" horiz-adv-x="319" 
d="M88 309v72h259v-72h-259z" />
    <glyph glyph-name="uniF6BB" horiz-adv-x="509" 
d="M126 309v72h389v-72h-389z" />
    <glyph glyph-name="uniF6BC" horiz-adv-x="679" 
d="M86 309v72h639v-72h-639z" />
    <glyph glyph-name="uniF6DC" horiz-adv-x="310" 
d="M358 690l-134 -690h-85l115 591l-113 -71l18 94l114 76h85z" />
    <glyph glyph-name="a.ss01" horiz-adv-x="521" 
d="M463 450l10 50h80l-97 -500h-80l8 44c-33 -35 -73 -52 -138 -52c-121 0 -188 107 -164 226l13 66c30 151 120 224 244 224c66 0 106 -25 124 -58zM262 64c102 0 139 64 156 152l13 68c20 103 -16 152 -98 152s-137 -44 -158 -152l-13 -66c-18 -90 13 -154 100 -154z" />
    <glyph glyph-name="acircumflex.ss01" horiz-adv-x="521" 
d="M463 450l10 50h80l-97 -500h-80l8 44c-33 -35 -73 -52 -138 -52c-121 0 -188 107 -164 226l13 66c30 151 120 224 244 224c66 0 106 -25 124 -58zM262 64c102 0 139 64 156 152l13 68c20 103 -16 152 -98 152s-137 -44 -158 -152l-13 -66c-18 -90 13 -154 100 -154z
M352 700h92l80 -142h-78l-51 97l-89 -97h-90z" />
    <glyph glyph-name="atilde.ss01" horiz-adv-x="521" 
d="M463 450l10 50h80l-97 -500h-80l8 44c-33 -35 -73 -52 -138 -52c-121 0 -188 107 -164 226l13 66c30 151 120 224 244 224c66 0 106 -25 124 -58zM262 64c102 0 139 64 156 152l13 68c20 103 -16 152 -98 152s-137 -44 -158 -152l-13 -66c-18 -90 13 -154 100 -154z
M443 589c-44 0 -74 27 -115 27c-21 0 -43 -10 -59 -26l-47 49c27 31 65 50 106 50c43 0 73 -27 116 -27c19 0 41 10 57 26l47 -49c-27 -31 -65 -50 -105 -50z" />
    <glyph glyph-name="adieresis.ss01" horiz-adv-x="521" 
d="M463 450l10 50h80l-97 -500h-80l8 44c-33 -35 -73 -52 -138 -52c-121 0 -188 107 -164 226l13 66c30 151 120 224 244 224c66 0 106 -25 124 -58zM262 64c102 0 139 64 156 152l13 68c20 103 -16 152 -98 152s-137 -44 -158 -152l-13 -66c-18 -90 13 -154 100 -154z
M224 600l17 90h90l-17 -90h-90zM434 600l17 90h90l-17 -90h-90z" />
    <glyph glyph-name="aring.ss01" horiz-adv-x="521" 
d="M463 450l10 50h80l-97 -500h-80l8 44c-33 -35 -73 -52 -138 -52c-121 0 -188 107 -164 226l13 66c30 151 120 224 244 224c66 0 106 -25 124 -58zM262 64c102 0 139 64 156 152l13 68c20 103 -16 152 -98 152s-137 -44 -158 -152l-13 -66c-18 -90 13 -154 100 -154z
M271 646c0 61 49 110 109 110c61 0 110 -49 110 -110c0 -60 -49 -109 -110 -109c-60 0 -109 49 -109 109zM323 646c0 -31 26 -57 57 -57c32 0 57 26 57 57c0 32 -25 57 -57 57c-31 0 -57 -25 -57 -57z" />
    <glyph glyph-name="egrave.ss01" horiz-adv-x="488" 
d="M388 122l58 -47c-50 -63 -107 -83 -189 -83c-119 0 -202 87 -175 226l13 66c28 142 108 224 251 224c111 0 163 -62 163 -131c0 -101 -72 -159 -219 -159h-128c-19 -88 16 -154 101 -154c62 0 97 21 125 58zM334 436c-105 0 -140 -57 -158 -148h128c97 0 124 28 124 83
c0 47 -26 65 -94 65zM390 725l39 -158h-75l-60 158h96z" />
    <glyph glyph-name="eacute.ss01" horiz-adv-x="488" 
d="M388 122l58 -47c-50 -63 -107 -83 -189 -83c-119 0 -202 87 -175 226l13 66c28 142 108 224 251 224c111 0 163 -62 163 -131c0 -101 -72 -159 -219 -159h-128c-19 -88 16 -154 101 -154c62 0 97 21 125 58zM334 436c-105 0 -140 -57 -158 -148h128c97 0 124 28 124 83
c0 47 -26 65 -94 65zM309 567l101 158h96l-122 -158h-75z" />
    <glyph glyph-name="ecircumflex.ss01" horiz-adv-x="488" 
d="M388 122l58 -47c-50 -63 -107 -83 -189 -83c-119 0 -202 87 -175 226l13 66c28 142 108 224 251 224c111 0 163 -62 163 -131c0 -101 -72 -159 -219 -159h-128c-19 -88 16 -154 101 -154c62 0 97 21 125 58zM334 436c-105 0 -140 -57 -158 -148h128c97 0 124 28 124 83
c0 47 -26 65 -94 65zM347 700h92l80 -142h-78l-51 97l-89 -97h-90z" />
    <glyph glyph-name="edieresis.ss01" horiz-adv-x="488" 
d="M388 122l58 -47c-50 -63 -107 -83 -189 -83c-119 0 -202 87 -175 226l13 66c28 142 108 224 251 224c111 0 163 -62 163 -131c0 -101 -72 -159 -219 -159h-128c-19 -88 16 -154 101 -154c62 0 97 21 125 58zM334 436c-105 0 -140 -57 -158 -148h128c97 0 124 28 124 83
c0 47 -26 65 -94 65zM214 600l17 90h90l-17 -90h-90zM424 600l17 90h90l-17 -90h-90z" />
    <glyph glyph-name="aacute.ss01" horiz-adv-x="521" 
d="M463 450l10 50h80l-97 -500h-80l8 44c-33 -35 -73 -52 -138 -52c-121 0 -188 107 -164 226l13 66c30 151 120 224 244 224c66 0 106 -25 124 -58zM262 64c102 0 139 64 156 152l13 68c20 103 -16 152 -98 152s-137 -44 -158 -152l-13 -66c-18 -90 13 -154 100 -154z
M319 567l101 158h96l-122 -158h-75z" />
    <glyph glyph-name="agrave.ss01" horiz-adv-x="521" 
d="M463 450l10 50h80l-97 -500h-80l8 44c-33 -35 -73 -52 -138 -52c-121 0 -188 107 -164 226l13 66c30 151 120 224 244 224c66 0 106 -25 124 -58zM262 64c102 0 139 64 156 152l13 68c20 103 -16 152 -98 152s-137 -44 -158 -152l-13 -66c-18 -90 13 -154 100 -154z
M390 725l39 -158h-75l-60 158h96z" />
    <glyph glyph-name="e.ss01" horiz-adv-x="488" 
d="M388 122l58 -47c-50 -63 -107 -83 -189 -83c-119 0 -202 87 -175 226l13 66c28 142 108 224 251 224c111 0 163 -62 163 -131c0 -101 -72 -159 -219 -159h-128c-19 -88 16 -154 101 -154c62 0 97 21 125 58zM334 436c-105 0 -140 -57 -158 -148h128c97 0 124 28 124 83
c0 47 -26 65 -94 65z" />
    </font>
</defs>
</svg>
